<?xml version="1.0" encoding="utf-8"?>
<!-- Generator: Adobe Illustrator 28.0.0, SVG Export Plug-In . SVG Version: 6.00 Build 0)  -->
<svg version="1.1" id="Camada_1" xmlns="http://www.w3.org/2000/svg" xmlns:xlink="http://www.w3.org/1999/xlink" x="0px" y="0px"
	 viewBox="0 0 80 80" style="enable-background:new 0 0 80 80;" xml:space="preserve">
<style type="text/css">
	.st0{fill:#F04D37;}
</style>
<g transform="rotate(0 50 50)">
	<path class="st0" d="M40,16.8L40,16.8c1.1,0,2,2.1,2,4.8l0,0c0,2.7-0.9,4.8-2,4.8l0,0c-1.1,0-2-2.1-2-4.8l0,0
		C38,18.9,38.9,16.8,40,16.8z	">
<animate  accumulate="none" additive="replace" attributeName="opacity" begin="-0.5128205128205128s" calcMode="linear" dur="0.5555555555555556s" fill="remove" keyTimes="0;1" repeatCount="indefinite" restart="always" values="1;0">
			</animate>
	</path>
</g>
<g transform="rotate(27.692307692307693 50 50)">
	<path class="st0" d="M36.5,22.6L36.5,22.6c1.1,0,2,2.1,2,4.8l0,0c0,2.7-0.9,4.8-2,4.8l0,0c-1.1,0-2-2.1-2-4.8l0,0
		C34.5,24.7,35.4,22.6,36.5,22.6z	">
<animate  accumulate="none" additive="replace" attributeName="opacity" begin="-0.47008547008547s" calcMode="linear" dur="0.5555555555555556s" fill="remove" keyTimes="0;1" repeatCount="indefinite" restart="always" values="1;0">
			</animate>
	</path>
</g>
<g transform="rotate(55.38461538461539 50 50)">
	<path class="st0" d="M36.1,29.3L36.1,29.3c1.1,0,2,2.1,2,4.8l0,0c0,2.7-0.9,4.8-2,4.8l0,0c-1.1,0-2-2.1-2-4.8l0,0
		C34.1,31.5,35,29.3,36.1,29.3z	">
<animate  accumulate="none" additive="replace" attributeName="opacity" begin="-0.42735042735042733s" calcMode="linear" dur="0.5555555555555556s" fill="remove" keyTimes="0;1" repeatCount="indefinite" restart="always" values="1;0">
			</animate>
	</path>
</g>
<g transform="rotate(83.07692307692308 50 50)">
	<path class="st0" d="M38.9,35.5L38.9,35.5c1.1,0,2,2.1,2,4.8l0,0c0,2.7-0.9,4.8-2,4.8l0,0c-1.1,0-2-2.1-2-4.8l0,0
		C36.9,37.7,37.8,35.5,38.9,35.5z	">
<animate  accumulate="none" additive="replace" attributeName="opacity" begin="-0.3846153846153846s" calcMode="linear" dur="0.5555555555555556s" fill="remove" keyTimes="0;1" repeatCount="indefinite" restart="always" values="1;0">
			</animate>
	</path>
</g>
<g transform="rotate(110.76923076923077 50 50)">
	<path class="st0" d="M44.2,39.7L44.2,39.7c1.1,0,2,2.1,2,4.8l0,0c0,2.7-0.9,4.8-2,4.8l0,0c-1.1,0-2-2.1-2-4.8l0,0
		C42.2,41.8,43.1,39.7,44.2,39.7z	">
<animate  accumulate="none" additive="replace" attributeName="opacity" begin="-0.34188034188034183s" calcMode="linear" dur="0.5555555555555556s" fill="remove" keyTimes="0;1" repeatCount="indefinite" restart="always" values="1;0">
			</animate>
	</path>
</g>
<g transform="rotate(138.46153846153845 50 50)">
	<path class="st0" d="M50.9,40.9L50.9,40.9c1.1,0,2,2.1,2,4.8l0,0c0,2.7-0.9,4.8-2,4.8l0,0c-1.1,0-2-2.1-2-4.8l0,0
		C48.9,43.1,49.7,40.9,50.9,40.9z	">
<animate  accumulate="none" additive="replace" attributeName="opacity" begin="-0.29914529914529914s" calcMode="linear" dur="0.5555555555555556s" fill="remove" keyTimes="0;1" repeatCount="indefinite" restart="always" values="1;0">
			</animate>
	</path>
</g>
<g transform="rotate(166.15384615384616 50 50)">
	<path class="st0" d="M57.3,38.9L57.3,38.9c1.1,0,2,2.1,2,4.8l0,0c0,2.7-0.9,4.8-2,4.8l0,0c-1.1,0-2-2.1-2-4.8l0,0
		C55.3,41.1,56.2,38.9,57.3,38.9z	">
<animate  accumulate="none" additive="replace" attributeName="opacity" begin="-0.2564102564102564s" calcMode="linear" dur="0.5555555555555556s" fill="remove" keyTimes="0;1" repeatCount="indefinite" restart="always" values="1;0">
			</animate>
	</path>
</g>
<g transform="rotate(193.84615384615384 50 50)">
	<path class="st0" d="M62.1,34.1L62.1,34.1c1.1,0,2,2.1,2,4.8l0,0c0,2.7-0.9,4.8-2,4.8l0,0c-1.1,0-2-2.1-2-4.8l0,0
		C60.1,36.3,61,34.1,62.1,34.1z	">
<animate  accumulate="none" additive="replace" attributeName="opacity" begin="-0.21367521367521367s" calcMode="linear" dur="0.5555555555555556s" fill="remove" keyTimes="0;1" repeatCount="indefinite" restart="always" values="1;0">
			</animate>
	</path>
</g>
<g transform="rotate(221.53846153846155 50 50)">
	<path class="st0" d="M64.1,27.7L64.1,27.7c1.1,0,2,2.1,2,4.8l0,0c0,2.7-0.9,4.8-2,4.8l0,0c-1.1,0-2-2.1-2-4.8l0,0
		C62.1,29.8,63,27.7,64.1,27.7z	">
<animate  accumulate="none" additive="replace" attributeName="opacity" begin="-0.17094017094017092s" calcMode="linear" dur="0.5555555555555556s" fill="remove" keyTimes="0;1" repeatCount="indefinite" restart="always" values="1;0">
			</animate>
	</path>
</g>
<g transform="rotate(249.23076923076923 50 50)">
	<path class="st0" d="M62.9,21L62.9,21c1.1,0,2,2.1,2,4.8l0,0c0,2.7-0.9,4.8-2,4.8l0,0c-1.1,0-2-2.1-2-4.8l0,0
		C60.9,23.1,61.8,21,62.9,21z	">
<animate  accumulate="none" additive="replace" attributeName="opacity" begin="-0.1282051282051282s" calcMode="linear" dur="0.5555555555555556s" fill="remove" keyTimes="0;1" repeatCount="indefinite" restart="always" values="1;0">
			</animate>
	</path>
</g>
<g transform="rotate(276.9230769230769 50 50)">
	<path class="st0" d="M58.7,15.7L58.7,15.7c1.1,0,2,2.1,2,4.8l0,0c0,2.7-0.9,4.8-2,4.8l0,0c-1.1,0-2-2.1-2-4.8l0,0
		C56.7,17.8,57.6,15.7,58.7,15.7z	">
<animate  accumulate="none" additive="replace" attributeName="opacity" begin="-0.08547008547008546s" calcMode="linear" dur="0.5555555555555556s" fill="remove" keyTimes="0;1" repeatCount="indefinite" restart="always" values="1;0">
			</animate>
	</path>
</g>
<g transform="rotate(304.61538461538464 50 50)">
	<path class="st0" d="M52.5,12.9L52.5,12.9c1.1,0,2,2.1,2,4.8l0,0c0,2.7-0.9,4.8-2,4.8l0,0c-1.1,0-2-2.1-2-4.8l0,0
		C50.5,15,51.4,12.9,52.5,12.9z	">
<animate  accumulate="none" additive="replace" attributeName="opacity" begin="-0.04273504273504273s" calcMode="linear" dur="0.5555555555555556s" fill="remove" keyTimes="0;1" repeatCount="indefinite" restart="always" values="1;0">
			</animate>
	</path>
</g>
<g transform="rotate(332.3076923076923 50 50)">
	<path class="st0" d="M45.8,13.3L45.8,13.3c1.1,0,2,2.1,2,4.8l0,0c0,2.7-0.9,4.8-2,4.8l0,0c-1.1,0-2-2.1-2-4.8l0,0
		C43.8,15.4,44.7,13.3,45.8,13.3z	">
<animate  accumulate="none" additive="replace" attributeName="opacity" begin="0s" calcMode="linear" dur="0.5555555555555556s" fill="remove" keyTimes="0;1" repeatCount="indefinite" restart="always" values="1;0">
			</animate>
	</path>
</g>
</svg>
