<svg xmlns="http://www.w3.org/2000/svg" viewBox="0 0 233 63.69"><defs><style>.cls-1{fill:#5bd9a4;}.cls-2{fill:#fff;}</style></defs><g id="Camada_2" data-name="Camada 2"><g id="Camada_1-2" data-name="Camada 1"><path class="cls-1" d="M30.5,32.3c5.35-2.19,9.32-6.91,9.81-12.46l.06-1.23A23.25,23.25,0,0,0,30.61,0c-5.94,4.44-10,11.13-10,18.65l.06,1.23C21.18,25.43,25.15,30.11,30.5,32.3Z"/><path class="cls-1" d="M28,41a18.84,18.84,0,0,0-6.26-9.41,17.83,17.83,0,0,0-11-3.82H0c0,1.36,0,2.72,0,4.08a17.56,17.56,0,0,0,6.72,13,17.61,17.61,0,0,0,10.79,4H28.23C28.23,46,28.37,42.46,28,41Z"/><path class="cls-1" d="M33.83,37.79A17.19,17.19,0,0,0,32.54,41a31.55,31.55,0,0,0-.23,5.9c0,.66,0,1.32,0,2h0v3.73l-.45,11.07h2c0-.35,0-.71.07-1.08.2-3.09.42-6.46.82-9.23.45-3.1,3.84-4.44,6.28-4.49h2a17.87,17.87,0,0,0,17.53-17c0-.46,0-.91,0-1.36,0-.91,0-1.81,0-2.72H49.81a17.85,17.85,0,0,0-11,3.82A17.55,17.55,0,0,0,33.83,37.79Z"/><path class="cls-2" d="M162.29,49.72h-6V35.85c-.06-2.57-1.23-4.1-3.38-4.62a4.62,4.62,0,0,0-5.47,2.51,21.47,21.47,0,0,0-1.28,6.32c-.23,3.16-.06,6.32-.06,9.6h-5.82v-33h5.82V29.47c2.85-3.63,6.34-4.33,10.24-3.33a7.19,7.19,0,0,1,5.82,6.61c.29,4.56.18,9.13.24,13.69A29,29,0,0,0,162.29,49.72ZM179.34,26c-7.22-1.29-13,2.69-14.08,9.6-1.11,7.37,3,13.63,9.72,14.45,7.91,1,12.39-3.22,12.86-7.14l-2.62-.7c-.93-.23-1.86-.47-2.74-.64-1.22,3.33-4.42,3.86-6.92,3.33a5.52,5.52,0,0,1-4.31-5.32H188.3C189.53,33,185.57,27.07,179.34,26ZM177,30.35A4.87,4.87,0,0,1,182,35H171.37A5.3,5.3,0,0,1,177,30.35ZM95.07,49.72h6.35V22.57h9.71v-5.5H85.29v5.56h9.78ZM209.84,28c2.62,6.5,5.18,13,7.8,19.43a3.49,3.49,0,0,1,0,2.93c-1,2.57-2,5.2-3.09,8,1.75,0,3.2-.06,4.71,0a1.74,1.74,0,0,0,2-1.34c3.73-9.72,7.45-19.49,11.24-29.2.17-.47.35-1,.52-1.64-1.69,0-3.2.06-4.71,0a1.58,1.58,0,0,0-1.87,1.28c-1.45,3.93-3,7.79-4.48,11.71-.23.58-.46,1.11-.75,1.93-1.81-4.8-3.44-9.31-5.18-13.75-.18-.41-.59-1.06-.93-1.06-1.93-.11-3.85-.05-5.94-.05C209.43,26.9,209.66,27.42,209.84,28Zm-74.09,16.8c-2.5.64-4.07-.47-4.3-3-.12-1.64-.06-3.27-.06-5V31.11h5.82v-5h-5.82V19.29h-6v6.85h-3.9v5h4V33.1c0,3.28-.06,6.5.06,9.77a6.92,6.92,0,0,0,4.65,6.73,11,11,0,0,0,6.58.18c.35-.06.82-.53.82-.76-.06-1.52-.24-3.05-.41-4.74C136.51,44.45,136.16,44.63,135.75,44.75Zm65.94,5h5.76V16.6h-5.76Zm-88.11,0h5.7V26.2h-5.7Zm-.87-30.66a3.62,3.62,0,0,0,3.72,3.62,3.55,3.55,0,0,0,3.72-3.62,3.72,3.72,0,0,0-7.44,0ZM197.5,46.5a3.56,3.56,0,0,0-3.73-3.63,3.47,3.47,0,0,0-3.6,3.69,3.39,3.39,0,0,0,3.66,3.57A3.47,3.47,0,0,0,197.5,46.5Z"/></g></g></svg>