<?xml version="1.0" encoding="utf-8"?>
<!-- Generator: Adobe Illustrator 28.0.0, SVG Export Plug-In . SVG Version: 6.00 Build 0)  -->
<svg version="1.1" id="Camada_1" xmlns="http://www.w3.org/2000/svg" xmlns:xlink="http://www.w3.org/1999/xlink" x="0px" y="0px"
	 viewBox="0 0 300 169" style="enable-background:new 0 0 300 169;" xml:space="preserve">
<style type="text/css">
	.st0{fill:#E6E8D8;}
</style>
<g>
	<g>
		<g>
			<path class="st0" d="M151.1,139.01h-1.55v-9.16h2.41l2.76,5.75l2.76-5.75h2.4v9.16h-1.55v-7.15l-3.2,6.36h-0.86l-3.18-6.36
				V139.01z"/>
			<path class="st0" d="M171.59,136.92l-0.92,2.08h-1.65l4.04-9.16h1.65l4.04,9.16h-1.65l-0.92-2.08H171.59z M175.55,135.49
				l-1.66-3.77l-1.66,3.77H175.55z"/>
			<path class="st0" d="M195.19,132.82c0,1.51-0.66,2.46-1.98,2.86l2.4,3.33h-1.97l-2.19-3.08h-2.03v3.08h-1.55v-9.16h3.41
				c1.4,0,2.4,0.24,3,0.71C194.89,131.03,195.19,131.78,195.19,132.82z M193.14,134.12c0.31-0.27,0.47-0.71,0.47-1.3
				s-0.16-1.01-0.48-1.23c-0.32-0.22-0.9-0.33-1.73-0.33h-1.97v3.28h1.93C192.23,134.52,192.82,134.39,193.14,134.12z"/>
			<path class="st0" d="M205.28,139.01v-9.16h1.55v7.69h4.18v1.47H205.28z"/>
			<path class="st0" d="M224.57,139.01h-4.01v-9.16h3.56c0.62,0,1.16,0.07,1.6,0.22c0.45,0.15,0.78,0.35,1,0.6
				c0.42,0.47,0.63,1,0.63,1.6c0,0.72-0.23,1.25-0.68,1.6c-0.17,0.12-0.28,0.2-0.34,0.23c-0.06,0.03-0.17,0.08-0.33,0.15
				c0.57,0.12,1.02,0.38,1.36,0.77c0.34,0.39,0.5,0.87,0.5,1.45c0,0.64-0.22,1.2-0.66,1.69
				C226.7,138.72,225.82,139.01,224.57,139.01z M222.11,133.65h1.97c1.12,0,1.68-0.38,1.68-1.14c0-0.44-0.14-0.75-0.41-0.94
				c-0.27-0.19-0.69-0.29-1.26-0.29h-1.98V133.65z M222.11,137.58h2.42c0.57,0,1-0.09,1.3-0.27s0.45-0.52,0.45-1.02
				c0-0.81-0.65-1.22-1.95-1.22h-2.23V137.58z"/>
			<path class="st0" d="M245.34,137.74c-0.93,0.9-2.07,1.36-3.43,1.36c-1.36,0-2.51-0.45-3.43-1.36c-0.93-0.9-1.39-2.03-1.39-3.38
				c0-1.35,0.46-2.48,1.39-3.38c0.93-0.9,2.07-1.36,3.43-1.36c1.36,0,2.51,0.45,3.43,1.36c0.93,0.9,1.39,2.03,1.39,3.38
				C246.73,135.71,246.27,136.84,245.34,137.74z M244.21,132.01c-0.62-0.65-1.39-0.97-2.3-0.97c-0.91,0-1.68,0.32-2.3,0.97
				c-0.62,0.65-0.94,1.43-0.94,2.35c0,0.92,0.31,1.71,0.94,2.35c0.62,0.65,1.39,0.97,2.3,0.97c0.91,0,1.68-0.32,2.3-0.97
				c0.62-0.65,0.94-1.43,0.94-2.35C245.14,133.44,244.83,132.65,244.21,132.01z"/>
			<path class="st0" d="M263.86,132.82c0,1.51-0.66,2.46-1.98,2.86l2.4,3.33h-1.97l-2.19-3.08h-2.03v3.08h-1.55v-9.16h3.41
				c1.4,0,2.4,0.24,3,0.71C263.55,131.03,263.86,131.78,263.86,132.82z M261.8,134.12c0.31-0.27,0.47-0.71,0.47-1.3
				s-0.16-1.01-0.48-1.23c-0.32-0.22-0.9-0.33-1.73-0.33h-1.97v3.28h1.93C260.89,134.52,261.48,134.39,261.8,134.12z"/>
			<path class="st0" d="M281.61,137.74c-0.93,0.9-2.07,1.36-3.43,1.36c-1.36,0-2.51-0.45-3.43-1.36c-0.93-0.9-1.39-2.03-1.39-3.38
				c0-1.35,0.46-2.48,1.39-3.38c0.93-0.9,2.07-1.36,3.43-1.36c1.36,0,2.51,0.45,3.43,1.36c0.93,0.9,1.39,2.03,1.39,3.38
				C283,135.71,282.54,136.84,281.61,137.74z M280.48,132.01c-0.62-0.65-1.39-0.97-2.3-0.97c-0.91,0-1.68,0.32-2.3,0.97
				c-0.62,0.65-0.94,1.43-0.94,2.35c0,0.92,0.31,1.71,0.94,2.35c0.62,0.65,1.39,0.97,2.3,0.97c0.91,0,1.68-0.32,2.3-0.97
				c0.62-0.65,0.94-1.43,0.94-2.35C281.41,133.44,281.1,132.65,280.48,132.01z"/>
		</g>
	</g>
	<g>
		<path class="st0" d="M164.82,69.3v16.94h-4.88v-7.3h-5.5v7.3h-4.88V69.3c0-2.44,1.98-4.43,4.43-4.43h6.41
			C162.83,64.88,164.82,66.86,164.82,69.3z M159.93,74.61v-4.18c0-0.67-0.55-1.22-1.22-1.22h-3.05c-0.67,0-1.22,0.55-1.22,1.22v4.18
			H159.93z"/>
		<path class="st0" d="M183.56,75.56v0.03c1.56,0.49,2.32,1.98,2.32,2.99v3.24c0,2.44-1.98,4.43-4.43,4.43h-10.84V64.88h10.84
			c2.44,0,4.43,1.98,4.43,4.43v3.24C185.88,73.58,185.12,75.1,183.56,75.56z M175.5,69.21v4.18h4.27c0.67,0,1.22-0.55,1.22-1.22
			v-1.74c0-0.67-0.55-1.22-1.22-1.22H175.5z M179.78,81.91c0.67,0,1.22-0.55,1.22-1.22v-1.74c0-0.67-0.55-1.22-1.22-1.22h-4.27v4.18
			H179.78z"/>
		<path class="st0" d="M204.63,75.56v0.03c1.56,0.49,2.32,1.98,2.32,2.99v3.24c0,2.44-1.98,4.43-4.43,4.43h-10.84V64.88h10.84
			c2.44,0,4.43,1.98,4.43,4.43v3.24C206.95,73.58,206.18,75.1,204.63,75.56z M196.57,69.21v4.18h4.27c0.67,0,1.22-0.55,1.22-1.22
			v-1.74c0-0.67-0.55-1.22-1.22-1.22H196.57z M200.84,81.91c0.67,0,1.22-0.55,1.22-1.22v-1.74c0-0.67-0.55-1.22-1.22-1.22h-4.27
			v4.18H200.84z"/>
		<path class="st0" d="M228.01,69.3v16.94h-4.88v-7.3h-5.5v7.3h-4.88V69.3c0-2.44,1.98-4.43,4.43-4.43h6.41
			C226.03,64.88,228.01,66.86,228.01,69.3z M223.13,74.61v-4.18c0-0.67-0.55-1.22-1.22-1.22h-3.05c-0.67,0-1.22,0.55-1.22,1.22v4.18
			H223.13z"/>
	</g>
	<g>
		<path class="st0" d="M159.93,101.9v-1.47c0-0.67-0.55-1.22-1.22-1.22h-3.05c-0.67,0-1.22,0.55-1.22,1.22v10.26
			c0,0.67,0.55,1.22,1.22,1.22h3.05c0.67,0,1.22-0.55,1.22-1.22v-1.47h4.88v2.6c0,2.44-1.98,4.43-4.43,4.43h-6.41
			c-2.44,0-4.43-1.98-4.43-4.43V99.31c0-2.44,1.98-4.43,4.43-4.43h6.41c2.44,0,4.43,1.98,4.43,4.43v2.6H159.93z"/>
		<path class="st0" d="M187.1,94.88v21.37h-4.88v-8.52h-6.72v8.52h-4.88V94.88h4.88v8.52h6.72v-8.52H187.1z"/>
		<path class="st0" d="M208.17,94.88v16.94c0,2.44-1.98,4.43-4.43,4.43h-6.41c-2.44,0-4.43-1.98-4.43-4.43V94.88h4.88v15.81
			c0,0.67,0.55,1.22,1.22,1.22h3.05c0.67,0,1.22-0.55,1.22-1.22V94.88H208.17z"/>
		<path class="st0" d="M229.87,116.25h-5.71l-4.03-6.72h-1.28v6.72h-4.88V94.88h10.84c2.44,0,4.43,1.98,4.43,4.43v5.8
			c0,2.11-1.5,3.88-3.45,4.34L229.87,116.25z M223.13,105.2c0.67,0,1.22-0.55,1.22-1.22v-3.54c0-0.67-0.55-1.22-1.22-1.22h-4.27
			v5.98H223.13z"/>
		<path class="st0" d="M245.44,101.9v-1.47c0-0.67-0.55-1.22-1.22-1.22h-3.05c-0.67,0-1.22,0.55-1.22,1.22v10.26
			c0,0.67,0.55,1.22,1.22,1.22h3.05c0.67,0,1.22-0.55,1.22-1.22v-1.47h4.88v2.6c0,2.44-1.98,4.43-4.43,4.43h-6.41
			c-2.44,0-4.43-1.98-4.43-4.43V99.31c0-2.44,1.98-4.43,4.43-4.43h6.41c2.44,0,4.43,1.98,4.43,4.43v2.6H245.44z"/>
		<path class="st0" d="M272.61,94.88v21.37h-4.88v-8.52h-6.72v8.52h-4.88V94.88h4.88v8.52h6.72v-8.52H272.61z"/>
	</g>
	<path class="st0" d="M117.42,46.93l-38.7-18.16c-0.58-0.27-1.16-0.45-1.75-0.59v-8.96h7.29v-3.84h-7.29V8h-3.84v7.39h-7.29v3.84
		h7.29v8.9c-0.68,0.14-1.35,0.34-2.01,0.66L32.7,46.81c-5.92,2.78-9.7,8.72-9.7,15.26v85.04h16.86v-4.63l26.77-12.56v14.33h16.86
		v-14.21l26.77,12.56v4.52h16.86V62.19C127.11,55.65,123.33,49.7,117.42,46.93z M66.63,109.09l-26.77,12.56V68.38
		c0-2.5,1.44-4.77,3.71-5.83l23.06-10.82V109.09z M110.25,121.76L83.48,109.2V51.72l23.06,10.82c2.26,1.06,3.71,3.34,3.71,5.83
		V121.76z"/>
</g>
</svg>
