<svg xmlns="http://www.w3.org/2000/svg" viewBox="0 0 456.36 731"><defs><style>.cls-1{fill:#e7e9d9;}.cls-2{fill:#f04d37;}</style></defs><g id="Camada_2" data-name="Camada 2"><g id="Camada_2-2" data-name="Camada 2"><path class="cls-1" d="M94.86,730.81H91.63v-19.1h5l5.76,12,5.76-12h5v19.1H110V715.89l-6.66,13.25h-1.81l-6.63-13.25Z"/><path class="cls-1" d="M137.58,726.47l-1.91,4.34h-3.45l8.42-19.1h3.44l8.41,19.1h-3.44l-1.91-4.34Zm8.25-3-3.47-7.87-3.47,7.87Z"/><path class="cls-1" d="M186.77,717.92q0,4.73-4.12,6l5,6.94h-4.1L179,724.39h-4.24v6.42h-3.22v-19.1h7.1c2.92,0,5,.5,6.26,1.48S186.77,715.75,186.77,717.92Zm-4.28,2.7a3.42,3.42,0,0,0,1-2.72,2.92,2.92,0,0,0-1-2.57,6.81,6.81,0,0,0-3.61-.69h-4.1v6.83h4C180.59,721.47,181.83,721.18,182.49,720.62Z"/><path class="cls-1" d="M207.81,730.81v-19.1H211v16h8.71v3.06Z"/><path class="cls-1" d="M248,730.81h-8.36v-19.1h7.43a10.63,10.63,0,0,1,3.34.47,4.54,4.54,0,0,1,2.09,1.26,4.85,4.85,0,0,1,1.32,3.33,3.94,3.94,0,0,1-1.43,3.33,4.78,4.78,0,0,1-.71.48c-.12.06-.35.17-.68.31a5,5,0,0,1,2.83,1.6,4.46,4.46,0,0,1,1.05,3,5.13,5.13,0,0,1-1.37,3.52Q251.93,730.82,248,730.81Zm-5.14-11.17H247c2.33,0,3.5-.8,3.5-2.38a2.26,2.26,0,0,0-.85-2,4.59,4.59,0,0,0-2.62-.6h-4.13Zm0,8.19h5.06a5.4,5.4,0,0,0,2.71-.56,2.25,2.25,0,0,0,.95-2.12q0-2.53-4.08-2.54h-4.64Z"/><path class="cls-1" d="M291.31,728.17a10.46,10.46,0,0,1-14.31,0,10,10,0,0,1,0-14.09,10.46,10.46,0,0,1,14.31,0,10,10,0,0,1,0,14.09ZM289,716.22a6.7,6.7,0,0,0-9.59,0,7.14,7.14,0,0,0,0,9.81,6.7,6.7,0,0,0,9.59,0,7.14,7.14,0,0,0,0-9.81Z"/><path class="cls-1" d="M329.91,717.92q0,4.73-4.12,6l5,6.94h-4.1l-4.56-6.42h-4.24v6.42h-3.22v-19.1h7.1c2.91,0,5,.5,6.26,1.48S329.91,715.75,329.91,717.92Zm-4.29,2.7a3.39,3.39,0,0,0,1-2.72,2.92,2.92,0,0,0-1-2.57,6.81,6.81,0,0,0-3.61-.69h-4.1v6.83h4C323.73,721.47,325,721.18,325.62,720.62Z"/><path class="cls-1" d="M366.93,728.17a10.47,10.47,0,0,1-14.32,0,10,10,0,0,1,0-14.09,10.47,10.47,0,0,1,14.32,0,10,10,0,0,1,0,14.09Zm-2.37-11.95a6.69,6.69,0,0,0-9.58,0,7.12,7.12,0,0,0,0,9.81,6.69,6.69,0,0,0,9.58,0,7.12,7.12,0,0,0,0-9.81Z"/><path class="cls-2" d="M31.82,636.85v35.32H21.64V657H10.18v15.21H0V636.85a9.23,9.23,0,0,1,9.23-9.23H22.59A9.23,9.23,0,0,1,31.82,636.85ZM21.64,647.92V639.2a2.55,2.55,0,0,0-2.55-2.54H12.73a2.55,2.55,0,0,0-2.55,2.54v8.72Z"/><path class="cls-2" d="M70.9,649.89V650a7,7,0,0,1,4.83,6.23v6.75a9.23,9.23,0,0,1-9.22,9.23H43.91V627.62h22.6a9.22,9.22,0,0,1,9.22,9.23v6.74A6.91,6.91,0,0,1,70.9,649.89ZM54.1,636.66v8.71H63a2.55,2.55,0,0,0,2.55-2.54V639.2A2.55,2.55,0,0,0,63,636.66ZM63,663.13a2.55,2.55,0,0,0,2.55-2.55V657A2.55,2.55,0,0,0,63,654.41H54.1v8.72Z"/><path class="cls-2" d="M114.81,649.89V650a7,7,0,0,1,4.83,6.23v6.75a9.23,9.23,0,0,1-9.22,9.23H87.82V627.62h22.6a9.22,9.22,0,0,1,9.22,9.23v6.74A6.91,6.91,0,0,1,114.81,649.89ZM98,636.66v8.71h8.9a2.55,2.55,0,0,0,2.55-2.54V639.2a2.55,2.55,0,0,0-2.55-2.54Zm8.9,26.47a2.55,2.55,0,0,0,2.55-2.55V657a2.55,2.55,0,0,0-2.55-2.55H98v8.72Z"/><path class="cls-2" d="M163.56,636.85v35.32H153.37V657H141.92v15.21H131.73V636.85a9.23,9.23,0,0,1,9.23-9.23h13.37A9.23,9.23,0,0,1,163.56,636.85Zm-10.19,11.07V639.2a2.54,2.54,0,0,0-2.54-2.54h-6.37a2.54,2.54,0,0,0-2.54,2.54v8.72Z"/><path class="cls-2" d="M221.47,642.26V639.2a2.55,2.55,0,0,0-2.55-2.54h-6.36A2.55,2.55,0,0,0,210,639.2v21.38a2.55,2.55,0,0,0,2.55,2.55h6.36a2.55,2.55,0,0,0,2.55-2.55v-3.05h10.18v5.41a9.24,9.24,0,0,1-9.23,9.23H209.06a9.23,9.23,0,0,1-9.23-9.23V636.85a9.23,9.23,0,0,1,9.23-9.23h13.36a9.23,9.23,0,0,1,9.23,9.23v5.41Z"/><path class="cls-2" d="M278.1,627.62v44.55H267.92V654.41h-14v17.76H243.74V627.62h10.18v17.75h14V627.62Z"/><path class="cls-2" d="M322,627.62v35.32a9.24,9.24,0,0,1-9.23,9.23H299.42a9.24,9.24,0,0,1-9.23-9.23V627.62h10.19v33a2.55,2.55,0,0,0,2.54,2.55h6.37a2.55,2.55,0,0,0,2.54-2.55v-33Z"/><path class="cls-2" d="M367.27,672.17H355.36l-8.4-14h-2.67v14H334.11V627.62H356.7a9.23,9.23,0,0,1,9.23,9.23v12.09a9.36,9.36,0,0,1-7.19,9Zm-14.07-23a2.56,2.56,0,0,0,2.55-2.55V639.2a2.55,2.55,0,0,0-2.55-2.54h-8.91v12.47Z"/><path class="cls-2" d="M399.72,642.26V639.2a2.55,2.55,0,0,0-2.55-2.54h-6.36a2.55,2.55,0,0,0-2.55,2.54v21.38a2.55,2.55,0,0,0,2.55,2.55h6.36a2.55,2.55,0,0,0,2.55-2.55v-3.05H409.9v5.41a9.23,9.23,0,0,1-9.23,9.23H387.31a9.24,9.24,0,0,1-9.23-9.23V636.85a9.23,9.23,0,0,1,9.23-9.23h13.36a9.23,9.23,0,0,1,9.23,9.23v5.41Z"/><path class="cls-2" d="M456.36,627.62v44.55H446.18V654.41h-14v17.76H422V627.62h10.19v17.75h14V627.62Z"/><path class="cls-1" d="M5.24,234.23V592.6h73V582.52l116-54.41v52h73V124A37.57,37.57,0,0,0,213.7,90L47.23,168.13A73,73,0,0,0,5.24,234.23Zm189,203.65-116,54.42V261.54a27.93,27.93,0,0,1,16.06-25.28l99.91-46.88Z"/><path class="cls-1" d="M194.22,123.25V580.16h73V528.6L383.2,583v9.58h73V234.72a73,73,0,0,0-42-66.1L246.6,90A36.76,36.76,0,0,0,194.22,123.25Zm73,66.13,99.91,46.88a27.93,27.93,0,0,1,16.06,25.28V492.79l-116-54.42Z"/><polygon class="cls-1" points="270.6 32 239.03 32 239.03 0 222.42 0 222.42 32 190.86 32 190.86 48.61 222.42 48.61 222.42 121.14 239.03 121.14 239.03 48.61 270.6 48.61 270.6 32"/></g></g></svg>